{
  "accessors": [
    {
      "bufferView": 0,
      "componentType": 5125,
      "count": 134316,
      "max": [
        134315.0
      ],
      "min": [
        0.0
      ],
      "name": "buffer-0-accessor-indices-buffer-0-mesh-0",
      "normalized": true,
      "type": "SCALAR"
    },
    {
      "bufferView": 1,
      "componentType": 5126,
      "count": 92160,
      "max": [
        889.0,
        483.0,
        0.0
      ],
      "min": [
        -417.0,
        -366.0,
        -1749.0
      ],
      "name": "buffer-0-accessor-position-buffer-0-mesh-0",
      "normalized": true,
      "type": "VEC3"
    },
    {
      "bufferView": 1,
      "byteOffset": 1105920,
      "componentType": 5126,
      "count": 92160,
      "name": "buffer-0-accessor-color-buffer-0-mesh-0",
      "normalized": true,
      "type": "VEC3"
    }
  ],
  "asset": {
    "generator": "Open3D",
    "version": "2.0"
  },
  "bufferViews": [
    {
      "buffer": 0,
      "byteLength": 537264,
      "name": "buffer-0-bufferview-uint",
      "target": 34963
    },
    {
      "buffer": 0,
      "byteLength": 2211840,
      "byteOffset": 537264,
      "byteStride": 12,
      "name": "buffer-0-bufferview-vec3",
      "target": 34962
    }
  ],
  "buffers": [
    {
      "byteLength": 2749104,
      "uri": "data:application/octet-stream;base64,"
    }
  ],
  "meshes": [
    {
      "primitives": [
        {
          "attributes": {
            "COLOR_0": 2,
            "POSITION": 1
          },
          "indices": 0,
          "mode": 4
        }
      ]
    }
  ],
  "nodes": [
    {
      "mesh": 0
    }
  ],
  "scene": 0,
  "scenes": [
    {
      "nodes": [
        0
      ]
    }
  ]
}
